<?xml version="1.0" encoding="UTF-8"?>
<svg id="Capa_1" data-name="Capa 1" xmlns="http://www.w3.org/2000/svg" viewBox="0 0 1143.12 705.74">
  <defs>
    <style>
      .cls-1 {
        fill: #9c0;
      }
    </style>
  </defs>
  <path d="m856.89,657.6c-.63,3.05-1.29,6.2-2.02,9.71h-20.61v-139.47h22.22v48.85c2.91-1.27,4.41-1.72,5.69-2.53,34.18-21.4,74.66-.75,77.2,39.41,1.7,26.78-11.6,47.58-35.15,53.59-14.74,3.76-29.12,2.59-41.85-7.05-1.29-.98-2.75-1.76-4.16-2.58-.23-.13-.63.02-1.33.06Zm58.76-39.67c.14-18.41-11.56-31.49-28.5-31.86-17.62-.38-30.4,12.59-30.54,31-.14,18.13,12.75,31.92,29.86,31.94,17.18.03,29.02-12.6,29.17-31.09Z"/>
  <path d="m457.91,656.64c-.17,17.18-.32,31.91-.47,47.16h-22.43c-1.43-11.03-.58-22.23-.71-33.36-.14-11.32-.03-22.64-.03-33.96,0-11.32,0-22.64,0-33.96,0-11.27,0-22.53,0-34.53h21.78c.39,3.09.75,6.01,1.33,10.63,14.95-12.93,31.51-14.93,49.04-10.34,10.28,2.69,18.69,8.55,24.99,17.24,13.53,18.65,12.81,48.51-1.76,66.35-8.69,10.64-20.13,15.86-33.77,16.96-13.43,1.09-25.57-2.1-37.97-12.17Zm29.3-70.54c-17.41.19-30.09,13.67-29.9,31.8.18,17.57,13.84,31.26,30.96,31.01,17.25-.25,29.3-13.78,28.92-32.48-.36-17.96-12.77-30.52-29.98-30.33Z"/>
  <path d="m139.99,667.34h-21.85c-2.3-8.96-2.32-130.05-.03-139.49h21.48v49.55c3.42-1.94,5.32-2.93,7.13-4.06,13.97-8.64,28.8-9.81,44.12-4.62,13.64,4.62,22.35,14.87,23.17,28.68,1.35,22.86.37,45.86.37,69.68h-21.1c-.31-2.99-.83-5.85-.85-8.72-.1-12,0-24.01-.06-36.01-.02-4-.13-8.01-.48-11.98-1.36-15.32-9.92-23.73-24.11-23.87-14.79-.15-26.15,9.06-27.19,23.74-1.02,14.27-.46,28.64-.58,42.97-.03,4.28,0,8.56,0,14.13Z"/>
  <path d="m646.05,667.08h-20.52c-.91-2.45-1.9-5.13-3.29-8.89-11.32,11.06-25.11,11.87-39.29,10.15-18.39-2.23-29.31-15.04-28.17-32.4.7-10.61,5.77-18.72,15.53-22.49,6.97-2.69,14.7-4,22.2-4.62,9.19-.77,18.49-.18,27.52-.18,2.24-11.78-2.71-19.27-13.73-22.18-10.1-2.67-19.8-.93-29.24,2.89-3.34,1.35-6.53,3.08-10.67,5.06-2.75-5.42-5.36-10.57-8.22-16.21,14.14-10.06,29.33-12.8,45.14-12.14,6.84.29,13.88,1.93,20.33,4.3,12.6,4.63,20.23,14.03,21.26,27.59.91,11.92.91,23.92,1.09,35.88.17,10.62.03,21.24.03,33.24Zm-24.83-42.49c-11.04,0-21.29-.49-31.47.17-6.87.45-10.84,4.74-11.76,10.28-.98,5.89,1.42,11.3,6.99,14.09,9.35,4.69,18.67,3.71,27.43-1.6,8.4-5.09,10.73-12.85,8.81-22.95Z"/>
  <path d="m328.3,667.45h-20.21c-.63-2.78-1.24-5.48-2.23-9.88-11.89,11.57-25.66,12.4-39.83,10.8-17.99-2.03-29.17-14.27-28.8-31.01.25-11.01,5.3-19.01,15.1-23.97,7.3-3.69,15.14-4.81,23.24-4.74,9.23.07,18.47.02,27.54.02,1.44-11.98-2.98-18.86-13.36-22-8.94-2.7-17.8-1.98-26.43,1.31-4.62,1.76-9.07,3.95-14.54,6.36-2.69-5.13-5.38-10.26-8.49-16.2,4.09-2.33,7.32-4.62,10.88-6.12,15.14-6.37,30.88-8.02,46.94-4.5,18.47,4.04,29.24,15.87,29.99,34.91.83,21.26.19,42.58.19,65.04Zm-24.22-43.01c-10.81,0-21.03-.41-31.2.14-6.82.37-11.35,4.54-12.28,9.77-1.02,5.7.55,10.75,5.53,13.88,9.33,5.87,19.01,4.9,28.32-.02,8.47-4.47,11.23-11.46,9.63-23.78Z"/>
  <path d="m1006.8,668.96c-37.18.04-61.42-31.66-51.23-67.02.46-1.6,1.06-3.16,1.67-4.7,9.35-23.38,34.3-35.3,63.05-30.12,23.89,4.3,40.23,23.89,40.6,48.67.48,32.32-20.7,53.14-54.1,53.18Zm.25-83.1c-17.49.07-30.33,13.56-30.13,31.66.2,18.02,13.33,31.55,30.57,31.49,17.63-.06,29.98-13.21,29.83-31.77-.15-18.58-12.58-31.46-30.26-31.38Z"/>
  <path d="m658.38,696.56c2.68-5.37,5.16-10.35,7.83-15.71,3.75,1.65,6.94,3.33,10.3,4.5,7.41,2.58,13.91.77,18.88-5.21,4.83-5.81,7.78-11.68,3.98-19.95-12.5-27.21-24.3-54.74-36.35-82.16-1.32-2.99-2.51-6.04-4.19-10.11h24.24c9.84,22.66,20.01,46.07,31.05,71.51,11.79-24.73,20.62-48.88,31.53-71.95h22.09c-1.21,3.4-2.04,6.21-3.18,8.88-13.88,32.42-27.79,64.84-41.75,97.23-1.97,4.58-3.91,9.22-6.43,13.51-11.89,20.28-37.85,24.93-58,9.47Z"/>
  <path d="m80.1,634.87c5.1,2.84,9.75,5.42,14.37,8.03.85.48,1.6,1.12,2.18,1.53-7.19,18.48-28.65,27.72-54.25,23.86-23.88-3.61-40.45-21.57-42.25-47.33-1.83-26.13,12.98-45.2,34.76-52.19,24.97-8.02,50.05-.34,62.15,19.97-5.55,3.32-11.1,6.65-16.44,9.85-20.49-15.75-38.28-16.62-49.93-2.85-10.57,12.5-9.4,34.5,2.43,45.69,12.89,12.18,29.85,10,46.96-6.56Z"/>
  <path d="m1137.33,646.75c2.1,5.92,3.84,10.84,5.79,16.36-14.17,7.45-27.95,8.23-41.72,1.78-9.69-4.54-13.75-13.46-14.15-23.67-.54-13.65-.32-27.32-.41-40.99-.03-3.92,0-7.83,0-12.55-5.93-.61-10.75-1.11-16.21-1.67v-16.59c4.95-.58,9.73-1.14,15.52-1.82.45-7.97.89-15.75,1.35-23.98h22.46v24.05c9.13.47,17.22.89,26.05,1.35v17.08c-7.77.37-15.88.75-24.56,1.16-.43,2.56-1.09,4.75-1.1,6.93-.06,12.67-.13,25.34.13,38,.32,15.33,6.95,19.98,22.05,15.83,1.24-.34,2.48-.66,4.81-1.27Z"/>
  <path d="m360.48,587.26c-6.34-.54-10.9-.93-16.11-1.37v-16.47c2.65-.36,5.16-.71,7.68-1.04,2.25-.29,4.5-.56,7.61-.95.45-7.79.89-15.3,1.37-23.54h21.84c.53,7.85,1.05,15.61,1.64,24.33h25.09v18.07h-24.49c-.58,3.27-1.39,5.74-1.4,8.22-.08,12.65-.2,25.3.17,37.94.45,15.42,7.25,20.04,22.07,15.53,1.23-.38,2.44-.81,4.29-1.43,1.29,2.85,2.6,5.44,3.65,8.13.95,2.44,1.64,4.98,2.4,7.36-11.93,9.01-32.71,9.48-44.11,1.21-8.61-6.25-11.45-15.27-11.63-25.31-.23-12.64-.06-25.29-.07-37.94,0-3.93,0-7.86,0-12.74Z"/>
  <g>
    <path class="cls-1" d="m580.23.05C661.23.05,742.22.09,823.21,0c10.18-.01,19.93,1.26,28.92,6.34,18.26,10.33,26.62,26.79,27.45,46.97.78,18.97.33,37.99.16,56.99-.07,8.19-1.17,8.91-8.7,6.8-6.47-1.81-12.95-2.84-19.72-2.52-6.73.33-7.46-.36-7.55-7.23-.2-15-.07-30-.09-45,0-3.33.12-6.68-.14-9.99-.74-9.5-5.31-14.51-14.66-16.16-3.28-.58-6.61-1.26-9.91-1.25-17.61.06-35.22.06-52.82.57-21.33.62-42.65.92-63.95-.12-7.32-.36-14.63-.76-21.96-.77-31.66-.02-63.33-.18-94.99.04-26.57.19-53.15.66-79.72,1.34-10.37.27-20.61-1.48-30.94-1.38-45.64.47-91.27,1.97-136.93,1.36-1.33-.02-2.67.01-3.99.15-8.43.91-13.46,5.87-13.45,13.24.01,7.1,5.26,13.1,12.97,14.14,4.27.58,8.65.39,12.97.39,126.66.02,253.31.05,379.97-.04,11.57,0,22.53,1.56,32.46,8.01,13.09,8.49,20.71,20.54,23.31,35.73,3.34,19.53,1.49,39.24,1.57,58.88.03,6.57-1.68,7.85-8.81,7.94-16,.21-32-.09-47.99.14-17.97.26-35.94-.85-53.91,1.54-46.17,6.14-81.81,46.79-83.2,93.39-1.26,42.61,25.46,82.54,64.38,96.55,10.42,3.75,21.16,5.82,32.3,5.8,27.33-.05,54.66-.01,81.99,0,2.67,0,5.33.08,8,.08,5,0,7.28,2.71,7.32,7.48.09,9,.24,18,.09,26.99-.17,10.31.21,20.6-.91,30.94-2.44,22.51-23,45.7-53.18,46.73-2.66.09-5.33.05-8,.05-127.32,0-254.65-.02-381.97.03-7.71,0-15.29-.42-22.75-2.58-24.52-7.11-41.2-28.48-41.22-54.04-.12-123.32-.15-246.65,0-369.97.04-33.71,24.38-57.47,58.61-57.53,81.99-.14,163.99-.04,245.98-.05Z"/>
    <path class="cls-1" d="m721.7,324.49c-8.32.3-14.69-2.44-19.85-7.53-16.35-16.14-32.91-32.1-48.68-48.8-13.07-13.85-7.65-34.28,9.71-39.14,9.31-2.61,17.11.64,23.73,6.99,8.88,8.53,17.46,17.38,26.27,26,6.96,6.81,7.47,6.86,14.4-.09,35.71-35.87,71.36-71.8,107.05-107.7,2.82-2.83,5.54-5.79,8.6-8.34,8.38-7,18.97-7.32,27.67-1.08,8.16,5.86,11.34,17.13,7.6,26.82-1.72,4.45-4.62,8.03-7.92,11.39-43.21,43.9-86.41,87.81-129.55,131.77-5.54,5.65-11.39,10.33-19.01,9.71Z"/>
    <path class="cls-1" d="m879.72,298.21c0,23.3-.07,46.61.04,69.91.04,8.1-1.26,15.91-3.94,23.51-8.53,24.16-32.63,37.68-59.92,34.6-3.41-.38-5.85-1.99-5.95-5.52-.21-7.64-.24-15.3-.06-22.94.1-4.06,2.87-5.66,6.69-5.87,3.65-.21,7.36-.2,10.92-.9,9.9-1.95,15.04-7.73,16-17.72.32-3.3.2-6.65.2-9.98.01-35.62.16-71.24-.11-106.86-.06-7.54,1.9-13.4,7.56-18.55,7.62-6.94,14.66-14.52,21.98-21.8,1.18-1.17,2.54-2.46,4.31-1.89,1.83.59,2.07,2.46,2.14,4.13.12,2.66.14,5.32.14,7.99,0,23.97,0,47.94,0,71.91h-.02Z"/>
  </g>
</svg>