<?xml version="1.0" encoding="UTF-8" standalone="no"?>
<!-- Created with Inkscape (http://www.inkscape.org/) -->

<svg
   xmlns:dc="http://purl.org/dc/elements/1.1/"
   xmlns:cc="http://creativecommons.org/ns#"
   xmlns:rdf="http://www.w3.org/1999/02/22-rdf-syntax-ns#"
   xmlns:svg="http://www.w3.org/2000/svg"
   xmlns="http://www.w3.org/2000/svg"
   xmlns:sodipodi="http://sodipodi.sourceforge.net/DTD/sodipodi-0.dtd"
   xmlns:inkscape="http://www.inkscape.org/namespaces/inkscape"
   width="100"
   height="18"
   viewBox="0 0 26.458332 4.7624999"
   version="1.1"
   id="svg6538"
   inkscape:version="0.92.4 (5da689c313, 2019-01-14)"
   sodipodi:docname="Directv LA logo.svg">
  <title
     id="title826">Banco Popular logo</title>
  <defs
     id="defs6532">
    <clipPath
       id="clipPath4571"
       clipPathUnits="userSpaceOnUse">
      <path
         inkscape:connector-curvature="0"
         id="path4569"
         d="M 21.758,22.944 H 633.374 V 814.661 H 21.758 Z" />
    </clipPath>
    <clipPath
       id="clipPath4533"
       clipPathUnits="userSpaceOnUse">
      <path
         inkscape:connector-curvature="0"
         id="path4531"
         d="M 21.758,22.944 H 633.374 V 814.661 H 21.758 Z" />
    </clipPath>
  </defs>
  <sodipodi:namedview
     id="base"
     pagecolor="#ffffff"
     bordercolor="#666666"
     borderopacity="1.0"
     inkscape:pageopacity="0.0"
     inkscape:pageshadow="2"
     inkscape:zoom="1"
     inkscape:cx="55.250265"
     inkscape:cy="1.4883625"
     inkscape:document-units="mm"
     inkscape:current-layer="layer1"
     showgrid="false"
     fit-margin-top="0"
     fit-margin-left="0"
     fit-margin-right="0"
     fit-margin-bottom="0"
     units="px"
     inkscape:window-width="1366"
     inkscape:window-height="705"
     inkscape:window-x="-8"
     inkscape:window-y="-8"
     inkscape:window-maximized="1"
     inkscape:showpageshadow="false" />
  <metadata
     id="metadata6535">
    <rdf:RDF>
      <cc:Work
         rdf:about="">
        <dc:format>image/svg+xml</dc:format>
        <dc:type
           rdf:resource="http://purl.org/dc/dcmitype/StillImage" />
        <dc:title>Banco Popular logo</dc:title>
        <cc:license
           rdf:resource="http://scripts.sil.org/OFL" />
        <dc:date>18 nov 2019</dc:date>
      </cc:Work>
      <cc:License
         rdf:about="http://scripts.sil.org/OFL">
        <cc:permits
           rdf:resource="http://scripts.sil.org/pub/OFL/Reproduction" />
        <cc:permits
           rdf:resource="http://scripts.sil.org/pub/OFL/Distribution" />
        <cc:permits
           rdf:resource="http://scripts.sil.org/pub/OFL/Embedding" />
        <cc:permits
           rdf:resource="http://scripts.sil.org/pub/OFL/DerivativeWorks" />
        <cc:requires
           rdf:resource="http://scripts.sil.org/pub/OFL/Notice" />
        <cc:requires
           rdf:resource="http://scripts.sil.org/pub/OFL/Attribution" />
        <cc:requires
           rdf:resource="http://scripts.sil.org/pub/OFL/ShareAlike" />
        <cc:requires
           rdf:resource="http://scripts.sil.org/pub/OFL/DerivativeRenaming" />
        <cc:requires
           rdf:resource="http://scripts.sil.org/pub/OFL/BundlingWhenSelling" />
      </cc:License>
    </rdf:RDF>
  </metadata>
  <g
     inkscape:label="Layer 1"
     inkscape:groupmode="layer"
     id="layer1"
     transform="translate(-57.452416,-157.74823)">
    <g
       id="#000000ff"
       transform="matrix(0.01405939,0,0,0.01405939,63.356393,158.85447)"
       style="fill:#ffff00;fill-opacity:1">
      <path
         style="opacity:1;fill:#0c863d;fill-opacity:1;stroke-width:0.40787908"
         d="m -186.96875,432.7207 c -10.85645,0 -21.50839,8.52748 -23.88281,19.1211 l -21.44141,95.66015 c -2.37443,10.59362 4.45409,19.12305 15.31055,19.12305 h 3.96484 l 11.89258,-59.26758 h 26.01562 l -0.31445,1.52735 0.002,0.002 c 1.14427,8.15974 6.31455,14.19461 16.06446,16.21289 13.02872,2.69592 25.88341,-6.04935 30.99609,-17.74219 h 30.281252 c -0.17945,0.65695 -0.360083,1.312 -0.570313,1.96485 -8.194789,25.52961 -35.317609,45.83761 -62.824219,40.14453 -7.77578,-1.60884 -14.60153,-4.99116 -20.25781,-9.62305 l -5.46094,26.78125 h 75.16016 c 10.85645,0 21.508379,-8.52943 23.882809,-19.12305 l 21.441407,-95.66015 c 2.37442,-10.59362 -4.454097,-19.1211 -15.310547,-19.1211 h -77.874999 l -3.75977,18.45118 c 9.40843,-3.544 19.70039,-4.66981 29.63868,-2.61329 20.50856,4.24563 34.743588,21.43618 37.189448,40.72071 h -30.195308 c -2.1761,-7.3927 -7.82308,-13.36525 -16.34766,-15.12891 -11.29409,-2.33884 -22.54475,4.94351 -28.2207,15.12891 h -26.78711 c 0.0437,-0.19081 0.0726,-0.38281 0.11914,-0.57227 0.003,-0.0168 0.008,-0.0324 0.0117,-0.0488 l 12.07421,-55.9375 z m 150.140625,41.35938 c -1.01715,0.0112 -2.035171,0.0423 -3.050781,0.0117 -1.24404,0.0571 -2.598348,-0.22045 -3.736328,0.41992 -0.7505,0.44458 -1.012795,1.33337 -1.171875,2.13281 -4.13997,19.57412 -8.291671,39.15244 -12.431641,58.72656 -0.17539,0.74642 -0.142966,1.67317 0.558594,2.15039 0.87286,0.54656 1.958763,0.36156 2.933594,0.40235 2.04755,-0.0489 4.103014,0.0739 6.146484,-0.0566 1.1747,-0.0693 1.749862,-1.17539 2.076172,-2.1543 7.75786,4.40101 17.775828,3.58244 25.199218,-1.13672 5.330981,-3.40171 9.938686,-8.16245 12.6347661,-13.92578 2.1372901,-4.69061 2.8263488,-10.08555 1.6679688,-15.12695 -1.62336,-7.05222 -7.9567909,-12.66465 -15.1191409,-13.57422 -5.18007,-0.82392 -10.46564,0.41446 -15.15625,2.62109 1.31337,-5.96727 2.573645,-11.94643 3.833985,-17.92187 0.33854,-1.03601 -0.167107,-2.32013 -1.341797,-2.46289 -1.00951,-0.10808 -2.025819,-0.11669 -3.042969,-0.10547 z m 475.064455,0.47851 c -1.4908,-0.0107 -2.97873,0.017 -4.45117,0.16993 -0.95852,0.25697 -1.50873,1.17797 -1.67188,2.0957 -4.11958,19.43136 -8.224,38.87137 -12.34766,58.30273 -0.12645,0.74642 -0.34975,1.67334 0.25391,2.28516 0.68116,0.7301 1.78184,0.5945 2.69141,0.62305 2.32083,-0.0367 4.64206,0.0402 6.96289,-0.0332 1.23179,-0.0245 2.1536,-1.09306 2.30859,-2.26367 4.12774,-19.51294 8.26714,-39.02613 12.38672,-58.53906 0.43643,-1.18285 -0.3303,-2.60472 -1.66406,-2.57617 -1.48468,-0.004 -2.97795,-0.0537 -4.46875,-0.0645 z m -137.91211,16.6836 c -1.41732,-0.006 -2.83552,0.10584 -4.23047,0.30469 -5.2494,0.7505 -10.17219,3.17095 -14.18164,6.60937 -5.15151,4.31944 -9.25528,10.21157 -10.37695,16.9375 -0.66892,4.3072 -0.51354,8.92213 1.46875,12.88672 2.38201,4.8456 7.10008,8.44589 12.39843,9.49414 6.70145,1.33376 13.87541,-0.17548 19.54493,-3.96875 4.28681,-2.85924 8.01193,-6.63242 10.63867,-11.07422 3.03462,-5.18414 4.20404,-11.50459 2.93554,-17.39844 -1.22772,-5.78781 -5.68883,-10.69079 -11.24414,-12.64453 -2.23314,-0.80046 -4.59093,-1.13708 -6.95312,-1.14648 z m -50.90625,0.008 c -4.12432,0.0799 -8.23413,1.24224 -11.91602,3.07617 -0.12644,-0.93404 -0.30612,-2.16526 -1.47265,-2.27539 -2.67161,-0.18355 -5.35947,-0.0684 -8.03516,-0.0644 -1.33376,-0.053 -2.24413,1.1652 -2.38281,2.38476 -4.02577,18.91744 -8.05609,37.83665 -12.08594,56.75 -0.20802,1.06049 -0.5575,2.10823 -0.53711,3.19727 0.0408,0.84023 0.85238,1.44285 1.66406,1.45508 2.26372,0.11014 4.53493,-8e-5 6.80274,0.0488 1.01562,-0.0367 2.18694,0.15129 3.03125,-0.5625 0.59958,-0.48129 0.76193,-1.2768 0.9414,-1.98243 1.29297,-6.057 2.59076,-12.11681 3.90821,-18.17382 3.26711,1.94967 7.0716,2.94818 10.87304,2.83398 6.17121,0.0122 12.19514,-2.39503 16.95508,-6.26172 4.99652,-4.00945 9.22344,-9.31437 10.86719,-15.5957 1.22772,-4.7885 1.16228,-10.0787 -1.01172,-14.58985 -2.3453,-4.74771 -6.83998,-8.42319 -12.00781,-9.63867 -1.84183,-0.44994 -3.71906,-0.63789 -5.59375,-0.60156 z m -122.8457,0.0625 c -0.61517,-0.009 -1.22811,0.007 -1.83789,0.0449 -9.18137,0.36301 -17.38049,6.05713 -22.56055,13.38672 -3.919722,5.50637 -5.612252,12.603 -4.343752,19.26367 1.08496,5.73478 5.336012,10.67699 10.736332,12.81836 3.74433,1.50915 7.89513,1.63555 11.85156,1.10938 6.75448,-1.03193 12.77619,-4.94185 17.32812,-9.91797 0.63221,-0.77905 1.49629,-1.73357 1.07618,-2.81446 -0.44051,-0.86878 -1.37491,-1.26514 -2.16211,-1.73828 -1.71717,-0.92181 -3.36136,-1.98542 -5.11524,-2.83789 -0.88509,-0.49761 -1.9115,-0.0292 -2.57226,0.61524 -1.76612,1.63151 -3.72105,3.13644 -6.02149,3.92773 -3.32013,1.16245 -7.38624,0.77449 -10.02929,-1.69726 -2.11691,-1.90071 -2.91151,-4.91427 -2.55665,-7.67969 0.82799,-6.81158 7.41831,-12.53799 14.33594,-12.10156 2.29636,0.0693 4.56805,0.99119 6.19141,2.63086 0.87694,0.86879 2.17927,2.0028 3.43554,1.10546 2.36978,-1.40718 4.62857,-2.98975 6.94532,-4.47851 0.99522,-0.59143 1.90025,-1.85173 1.21094,-3.00195 -0.92182,-1.79466 -2.40118,-3.23952 -3.90626,-4.54883 -3.33696,-2.79448 -7.69965,-4.02432 -12.00585,-4.08594 z m 48.25195,0.20117 c -1.71687,-0.0373 -3.44165,0.1019 -5.1211,0.3711 -8.49205,1.38679 -15.79636,7.08505 -20.42578,14.16992 -3.4425,5.36768 -4.85036,12.06861 -3.58593,18.34179 1.17469,5.79188 5.57107,10.74025 11.09375,12.77149 3.78512,1.42757 7.94982,1.4755 11.90625,0.90039 8.01074,-1.30929 14.90452,-6.56212 19.5625,-13.03516 3.96458,-5.48189 5.69394,-12.57141 4.43359,-19.24023 -0.9993,-5.34322 -4.7038,-10.03717 -9.58203,-12.39063 -2.57983,-1.27207 -5.4198,-1.82649 -8.28125,-1.88867 z m 179.08008,0.1211 c -4.34735,-0.034 -8.69698,1.1643 -12.58203,3.09765 -0.0245,-0.98299 -0.32232,-2.25166 -1.52149,-2.30469 -2.5574,-0.16315 -5.12619,-0.0482 -7.68359,-0.0645 -1.2114,-0.0938 -2.36172,0.75913 -2.53711,1.97461 -4.20931,19.57004 -8.3363,39.16416 -12.5293,58.73828 -0.14683,0.84431 -0.45776,1.91633 0.25195,2.60156 0.70563,0.64445 1.73796,0.49029 2.62305,0.53516 2.40241,-0.0489 4.81243,0.0638 7.21484,-0.0586 1.08089,-0.0653 1.86368,-1.02718 2.03907,-2.04688 1.35824,-6.20384 2.66342,-12.41903 4.01758,-18.62695 5.00875,3.0958 11.26597,3.47806 16.89062,2.10351 5.40848,-1.30113 10.23843,-4.43684 14.11328,-8.37695 3.76881,-3.72394 6.75833,-8.38657 7.90039,-13.60742 0.92181,-4.27865 0.84854,-8.89634 -0.88086,-12.96289 -2.28414,-5.33098 -7.28825,-9.41331 -12.98632,-10.53906 -1.43167,-0.30387 -2.88096,-0.45154 -4.33008,-0.46289 z m -325.964847,0.0566 c -0.58581,0.006 -1.172599,0.0357 -1.755859,0.0898 -5.71031,0.34669 -11.15879,2.78554 -15.53125,6.42383 -5.4125603,4.42548 -9.84518899,10.48627 -11.011719,17.50586 -0.59143001,3.89526 -0.48961877,8.00808 1.01953125,11.69531 2.12913005,5.26572 6.90401185,9.37246 12.45117175,10.63281 6.02437,1.37455 12.460487,0.21626 17.873047,-2.67968 0.10605,0.92997 0.158947,2.24632 1.341797,2.42578 2.43504,0.2896 4.919396,0.0699 7.378906,0.12695 1.24811,0.0938 2.431521,-0.8206 2.619141,-2.06055 2.77358,-13.06437 5.486359,-26.14071 8.255859,-39.20508 0.18762,-0.95851 0.484845,-1.92113 0.427734,-2.9082 -0.14275,-1.12983 -1.472199,-1.37317 -2.40625,-1.32422 -2.31675,0.0367 -4.642408,-0.0907 -6.955078,0.0684 -1.29706,0.17539 -1.809446,1.47243 -2.066406,2.58594 -3.42618,-2.28413 -7.539895,-3.41855 -11.640625,-3.37695 z m 441.921877,0.21875 c -2.43506,-0.009 -4.87805,0.34383 -7.19531,1 -6.78303,1.95374 -12.52214,6.64131 -16.66211,12.25781 -4.32352,5.88161 -6.17106,13.76102 -4.06641,20.8418 1.61112,5.29427 5.88071,9.67942 11.10156,11.48632 6.5016,2.19031 13.80209,1.04119 19.77344,-2.14843 0.0857,0.76274 -0.008,1.77398 0.77148,2.22265 1.0564,0.53024 2.28924,0.30865 3.43946,0.35352 1.78243,-0.0734 3.59682,0.15501 5.37109,-0.13867 1.10128,-0.20801 1.65521,-1.32423 1.81836,-2.33985 2.83884,-13.48856 5.70235,-26.97433 8.53711,-40.46289 0.37525,-1.05641 -0.33346,-2.31302 -1.5,-2.30078 -2.52885,-0.0897 -5.06685,-0.081 -7.5957,-0.008 -1.39087,0.0367 -2.0552,1.429 -2.32032,2.59961 -3.3803,-2.32236 -7.41421,-3.34798 -11.47265,-3.36328 z m 49.73242,0.0762 c -3.57742,0.0161 -7.17695,0.53629 -10.15039,2.65625 -0.0979,-0.78313 -0.37989,-1.77314 -1.32617,-1.82617 -2.68792,-0.15091 -5.38825,-0.0775 -8.07617,-0.0449 -1.27666,-0.0204 -2.12838,1.14614 -2.2793,2.3086 -2.85107,13.50487 -5.75561,27.00081 -8.57813,40.50976 -0.33039,1.06049 0.26942,2.33013 1.47266,2.375 2.16584,0.16315 4.35334,0.0152 6.52734,0.0723 1.02785,-0.0367 2.14127,0.14231 3.09571,-0.35938 0.76273,-0.42827 1.07105,-1.31332 1.23828,-2.125 1.64375,-7.89246 3.30527,-15.78332 4.95312,-23.67578 0.55879,-3.10396 3.0716,-5.49993 5.85742,-6.74804 2.67977,-1.17877 5.65991,-0.52854 8.48243,-0.77735 1.17061,-0.0734 1.92152,-1.18279 2.06836,-2.26367 0.54248,-2.72463 1.20017,-5.42932 1.68554,-8.16211 0.20803,-0.88918 -0.55912,-1.75062 -1.42383,-1.82812 -1.16348,-0.0663 -2.3544,-0.11669 -3.54687,-0.11133 z m -442.347656,0.14258 c -3.38731,0.002 -6.763474,0.74008 -9.746094,2.39453 -0.14683,-0.66892 -0.301254,-1.48541 -1.121094,-1.59961 -2.59411,-0.15908 -5.200638,-0.0484 -7.798828,-0.0606 -1.23587,-0.0857 -2.349663,0.84524 -2.533203,2.05664 -2.87555,13.48856 -5.703096,26.98783 -8.566406,40.48047 -0.11828,0.75457 -0.362741,1.68828 0.224609,2.31641 0.68116,0.75458 1.810786,0.6119 2.728516,0.64453 2.32083,-0.0367 4.64205,0.0462 6.96289,-0.0312 1.24811,-0.0245 2.149862,-1.13391 2.300782,-2.3086 1.62336,-7.79457 3.254114,-15.59002 4.865234,-23.38867 0.74642,-5.03323 6.102394,-8.90353 11.115234,-7.99804 1.91295,0.36302 3.630196,1.7009 4.384766,3.50781 0.63629,1.50099 0.579174,3.20115 0.277344,4.77148 -1.59481,7.51721 -3.169036,15.03926 -4.759766,22.56055 -0.12236,0.72602 -0.318729,1.62663 0.244141,2.23437 0.56287,0.66484 1.524952,0.63603 2.320312,0.65235 2.45544,-0.0286 4.911931,0.038 7.363281,-0.0312 1.166541,-0.0204 2.100512,-0.99552 2.263672,-2.11719 1.72125,-8.08009 3.413863,-16.16762 5.126954,-24.25586 0.79128,-4.08287 0.974643,-8.55069 -0.873047,-12.38476 -1.65191,-3.46697 -5.107467,-5.76339 -8.753907,-6.69336 -1.95782,-0.48945 -3.99301,-0.75145 -6.02539,-0.75 z m 311.119136,0.0195 c -1.41178,-5e-4 -2.82319,0.016 -4.23242,0.0527 -1.2114,0.0285 -2.03159,1.142 -2.16211,2.26367 -1.7335,8.19021 -3.53156,16.36431 -5.23242,24.5586 -0.64037,4.04618 -0.84483,8.4797 1.16602,12.1914 1.94558,3.62197 5.8486,5.7761 9.79687,6.49805 4.7885,0.85654 9.99801,0.57951 14.29297,-1.90039 0.12645,0.72194 0.34715,1.53751 1.23633,1.57422 2.72463,0.13052 5.46465,0.0616 8.19336,0.0371 1.16653,0 2.13815,-0.94618 2.28906,-2.08008 2.82253,-13.20305 5.59528,-26.41822 8.42188,-39.61719 0.13868,-0.92996 0.56761,-1.97938 -0.0156,-2.83594 -0.60366,-0.81576 -1.71257,-0.70973 -2.59766,-0.73828 -2.4432,0.0449 -4.89113,-0.0615 -7.32617,0.0527 -1.25218,0.0571 -2.05111,1.23651 -2.18164,2.38672 -1.6723,7.86391 -3.34544,15.73163 -5.01367,23.59961 -0.7872,4.72732 -5.71351,8.15415 -10.4082,7.60351 -1.79875,-0.17947 -3.52465,-1.15813 -4.51172,-2.68359 -1.03601,-1.53363 -1.19074,-3.50911 -0.79102,-5.2793 1.65191,-7.76194 3.33988,-15.51505 4.95508,-23.28515 0.38749,-1.10944 -0.45352,-2.37426 -1.64453,-2.34571 -1.41126,-0.0347 -2.82261,-0.0522 -4.23438,-0.0527 z m -140.86914,11.23242 c 1.68106,0.035 3.34712,0.4016 4.80274,1.27344 2.13729,1.26851 3.65784,3.52774 3.94336,6.01172 1.06864,8.23916 -7.03888,16.23098 -15.26172,15.06445 -2.81436,-0.32223 -5.48655,-2.0776 -6.68164,-4.67578 -1.17469,-2.5982 -0.97882,-5.64032 -0.0488,-8.2793 1.70902,-4.40102 5.57995,-8.10071 10.24609,-9.13672 0.97738,-0.18049 1.99136,-0.2788 3,-0.25781 z m 50.04102,0.15625 c 1.26239,0.01 2.51841,0.22251 3.69922,0.6875 2.37793,0.95443 4.29139,3.05973 4.88281,5.57227 0.75866,3.12843 -0.02,6.51301 -1.81055,9.16015 -2.32899,3.47921 -6.07342,6.23637 -10.33984,6.55859 -2.90002,0.31 -6.03224,-0.55337 -7.99414,-2.80078 -2.29636,-2.45135 -2.51734,-6.1801 -1.59961,-9.26367 1.43574,-4.34799 5.0574,-7.99389 9.42578,-9.38476 1.20529,-0.34466 2.47395,-0.53899 3.73633,-0.5293 z m 53.75,0.23047 c 1.68911,0.0247 3.36681,0.38521 4.83008,1.25195 2.16584,1.26442 3.70702,3.54462 3.98437,6.04492 1.06865,8.25955 -7.09643,16.28292 -15.34375,15.04297 -2.91225,-0.3467 -5.64641,-2.27255 -6.75586,-5.01758 -1.12166,-2.90818 -0.72886,-6.24153 0.57227,-9.02734 1.91703,-3.84222 5.44486,-7.06332 9.70312,-8.01367 0.97891,-0.18967 1.9963,-0.29607 3.00977,-0.28125 z m -179.63281,0.0918 c 2.42223,0.039 4.84204,0.82879 6.52148,2.63671 2.57372,2.58188 2.76851,6.68871 1.63867,9.98438 -1.9986,5.35545 -7.32914,9.72417 -13.21484,9.50391 -3.25079,0.008 -6.52704,-1.8393 -7.87305,-4.85352 -1.44797,-3.29974 -0.80702,-7.23629 1.04883,-10.23828 2.12505,-3.36093 5.49124,-6.13455 9.48438,-6.83203 0.78109,-0.14377 1.58712,-0.21418 2.39453,-0.20117 z M 25.257812,503.875 c 1.659161,-0.0291 3.320594,0.27634 4.814454,1.01562 2.58187,1.28075 4.354939,3.97585 4.505859,6.85547 0.53024,6.13858 -3.934629,11.91804 -9.542969,13.99414 -3.19369,1.08496 -7.017313,1.06462 -9.839844,-0.9707 -1.99045,-1.38679 -3.233855,-3.70272 -3.384765,-6.11328 -0.55472,-6.48528 4.355387,-12.702 10.498047,-14.39063 0.95749,-0.23555 1.953728,-0.37318 2.949218,-0.39062 z m -52.517578,0.002 c 1.94768,-0.0291 3.911102,0.39527 5.550782,1.46289 2.03531,1.30114 3.414393,3.54325 3.683593,5.9375 1.03601,8.25547 -7.101951,16.2989 -15.357421,15.05078 -2.798051,-0.33854 -5.392464,-2.15744 -6.595704,-4.71484 -1.3093,-2.94489 -0.92436,-6.4192 0.38086,-9.29883 1.99452,-4.09918 5.823643,-7.51725 10.408203,-8.26367 0.63323,-0.10299 1.280457,-0.16414 1.929687,-0.17383 z m 494.916016,0.17383 c 1.96571,0.0577 3.90853,0.57167 5.48242,1.79492 1.98637,1.46837 3.17853,3.87057 3.25195,6.33008 0.35486,5.66952 -3.58959,10.90947 -8.58203,13.23438 -3.04278,1.31745 -6.70986,1.58289 -9.73632,0.0859 -2.45136,-1.20324 -4.19295,-3.69529 -4.4336,-6.41992 -0.77905,-6.74632 4.48187,-13.3049 10.95899,-14.77734 0.72092,-0.13358 1.46632,-0.22035 2.21484,-0.2461 0.2807,-0.01 0.56294,-0.0102 0.84375,-0.002 z"
         transform="matrix(2.4517071,0,0,2.4517071,163.76471,-1134.5921)"
         id="path19"
         inkscape:connector-curvature="0" />
    </g>
  </g>
</svg>
