<?xml version="1.0" encoding="utf-8"?>
<!-- Generator: Adobe Illustrator 28.0.0, SVG Export Plug-In . SVG Version: 6.00 Build 0)  -->
<svg version="1.1" id="Capa_1" xmlns="http://www.w3.org/2000/svg" xmlns:xlink="http://www.w3.org/1999/xlink" x="0px" y="0px"
	 viewBox="0 0 708.66 708.66" style="enable-background:new 0 0 708.66 708.66;" xml:space="preserve">
<style type="text/css">
	.st0{fill:#F7A600;}
	.st1{fill:#E30613;}
	.st2{fill:#2581C4;}
</style>
<g>
	<path d="M356.15,193.39c3.9,0.93,7.87,1.58,11.7,2.81c12.08,3.89,23.52,9.26,34.7,15.19c2.77,1.47,5.52,2.96,8.5,4.56
		c-0.22-2.16-1-3.9-1.06-5.8c-0.16-4.81,2.34-8.24,7.09-8.56c9.27-0.62,18.58-0.69,27.85,0.03c4.57,0.36,6.86,3.29,6.95,7.95
		c0.09,4.76-1.63,9.18-2.5,13.75c-0.89,4.67-1.55,9.36-2.06,14.08c-0.13,1.25,0.24,2,1.3,2.79c9.35,7.03,18.81,13.92,27.63,21.63
		c3.77,3.29,7.15,6.93,9.83,11.18c6.82,10.8,3.6,20.51-8.33,25.23c-8.51,3.37-17.37,3.43-26.3,2.84c-4.54-0.3-4.43-0.39-3.9,4.27
		c1.66,14.66,7.78,27.41,16.7,38.92c6.11,7.89,10.32,16.52,10.69,26.62c0.54,14.94-6.08,26.63-17.2,36
		c-10.45,8.81-22.75,13.33-36.22,15.07c-10.3,1.33-20.47,0.7-30.6-1.39c-1.04-0.21-2.03-0.28-3.1,0.02
		c-12.89,3.63-26.05,5.04-39.41,4.56c-10.35-0.37-20.59-1.67-30.57-4.6c-2.09-0.61-4.02,0.32-5.99,0.65
		c-19.17,3.25-37.66,1.58-54.82-8.14c-12.85-7.28-22.22-17.63-25.31-32.54c-2.8-13.51,1.41-25.31,9.67-35.92
		c7.27-9.33,12.71-19.56,15.52-31.11c0.88-3.6,1.37-7.25,1.7-10.94c0.13-1.45-0.3-1.76-1.73-1.66c-6.1,0.44-12.21,0.8-18.32-0.05
		c-5.81-0.8-11.38-2.27-16.2-5.82c-5.7-4.19-7.56-10.45-5.04-17.05c2.38-6.23,6.61-11.14,11.53-15.45
		c15.89-13.89,32.95-26.2,50.82-37.41c15.34-9.63,31.14-18.41,47.98-25.17c6.92-2.78,13.94-5.28,21.39-6.26
		c0.1-0.01,0.18-0.21,0.27-0.32C351.61,193.39,353.88,193.39,356.15,193.39z M250.77,297.69c9.98-0.61,20.68-1.19,31.38-1.94
		c19.96-1.39,39.94-2.47,59.94-3.02c17.46-0.48,34.9,0.35,52.33,1.24c19,0.97,37.98,2.3,56.97,3.53c6.75,0.44,13.41,0.33,19.8-2.46
		c7.66-3.34,11.56-10.11,9.6-17.56c-1.27-4.81-4.5-8.46-7.96-11.89c-11.47-11.37-24.47-20.81-37.72-29.92
		c-11.37-7.82-23.12-15.08-35.31-21.58c-9.67-5.15-19.46-10.01-29.88-13.49c-5.81-1.94-11.69-3.73-17.89-3.46
		c-6.54,0.29-12.75,2.19-18.86,4.44c-8.8,3.25-17.18,7.38-25.48,11.72c-12.44,6.51-24.34,13.92-35.97,21.76
		c-10.13,6.84-19.99,14.05-29.29,21.99c-5.23,4.46-10.52,8.89-14.51,14.57c-6.37,9.06-3.19,19.27,7.09,23.47
		C239.86,297.09,244.87,297.79,250.77,297.69z M309.94,417.82c-0.65-0.36-1.09-0.65-1.56-0.85c-5.97-2.53-11.2-6.05-15.57-10.93
		c-5.84-6.53-3.92-15.24,4.22-18.29c6.77-2.53,13.53-5.1,20.36-7.48c1.97-0.69,2.33-1.71,1.99-3.55c-1.77-9.39-1.78-18.8-0.46-28.26
		c1.63-11.71,4.77-22.77,12.56-32.07c5.18-6.18,11.62-9.97,19.74-10.42c13.56-0.76,22.23,6.89,28.3,17.73
		c5.36,9.58,7.55,20.28,8.21,31.25c0.46,7.57,0.1,15.08-1.15,22.55c-0.28,1.65,0.26,2.56,1.8,3.02c1.72,0.51,3.46,1,5.16,1.6
		c5.04,1.79,10.08,3.56,15.07,5.49c3.85,1.49,8.61,4.96,7.84,11.06c-0.81,6.5-5.57,10.21-10.21,13.81c-2.39,1.86-5.38,2.95-8.08,4.4
		c-0.49,0.26-1.36,0.31-1.19,1.12c0.18,0.84,0.94,1.06,1.75,1.14c7.62,0.77,15.22,0.78,22.79-0.45c11.98-1.94,22.74-6.67,31.5-15.08
		c7.99-7.66,13.42-16.91,14.95-28.17c1.19-8.82-0.09-17.1-4.71-24.75c-5.38-8.91-10.77-17.81-14.13-27.74
		c-2.2-6.49-4.14-13.05-4.54-19.94c-0.11-2-1.33-2.48-3.02-2.57c-5.58-0.29-11.15-0.64-16.73-0.93
		c-12.43-0.64-24.86-1.33-37.29-1.88c-14.4-0.64-28.78-1.57-43.22-1.03c-13.65,0.51-27.29,1.12-40.93,1.76
		c-12.96,0.61-25.89,1.82-38.87,2.01c-1.8,0.03-2.91,0.57-3.1,2.46c-0.5,5.17-1.49,10.22-3.03,15.2
		c-3.45,11.17-8.46,21.57-14.96,31.26c-3,4.48-4.87,9.48-5.52,14.7c-1.54,12.31,1.84,23.46,9.39,33.26
		c7.08,9.19,16.32,15.43,27.31,19.1c9.52,3.18,19.35,3.76,29.25,3.11C305.77,419.32,308.17,420,309.94,417.82z M382.17,362.84
		c-0.04-2.16-0.11-6.01-0.62-9.83c-1.34-10.13-3.91-19.83-10.26-28.12c-4.52-5.89-10.2-9.85-17.92-9.99
		c-8.2-0.14-14.25,3.92-18.94,10.23c-7,9.42-9.59,20.39-10.43,31.82c-1.04,14.09,0.97,27.84,5.26,41.29
		c0.56,1.74,1.22,2.18,2.99,1.92c13.76-2.05,27.53-2.16,41.29-0.01c1.85,0.29,2.63-0.2,3.19-2
		C380.13,387.19,382.13,376.02,382.17,362.84z M309.87,415.62c-2.12-4.16-1.66-5.9,1.71-8.49c3.92-3.02,8.6-4.23,13.22-5.49
		c4.01-1.1,4-0.96,2.73-4.98c-5.13-16.27-6.71-32.85-3.59-49.67c1.73-9.34,4.89-18.18,11.51-25.37c6.22-6.75,13.66-9.97,22.9-7.74
		c7.3,1.76,12.06,6.84,15.93,12.81c6.11,9.41,8.42,20.08,9.12,31.05c0.89,14.04-1.27,27.76-5.64,41.13
		c-0.45,1.37-0.19,1.92,1.18,2.19c3.26,0.64,6.4,1.72,9.54,2.8c7.13,2.46,9.16,5.08,8.4,11.02c0.48,0.26,0.87-0.01,1.26-0.22
		c5.27-2.73,10.08-6.18,13.16-11.28c3.13-5.19,3.41-11.9-4.78-15.03c-6.75-2.58-13.53-5.08-20.34-7.52
		c-1.09-0.39-1.28-0.68-1.08-1.86c0.59-3.48,1.18-6.99,1.31-10.51c0.3-7.9,0.27-15.81-1.26-23.64
		c-1.96-10.01-5.15-19.42-11.97-27.33c-8.98-10.39-23.07-12.25-34.32-5.3c-6.45,3.98-10.42,10.14-13.42,16.91
		c-3.23,7.28-4.88,15-5.65,22.9c-0.83,8.52-0.6,17.03,0.84,25.46c0.36,2.1-0.02,2.99-1.98,3.69c-6.52,2.33-12.98,4.81-19.46,7.24
		c-6.97,2.6-7.85,9.35-4.8,14.63C297.85,409.02,303.23,412.68,309.87,415.62z M354.03,423.28c6.73,0.14,13.96-0.41,21.11-1.56
		c6.17-0.99,12.34-2.19,17.8-5.55c4.26-2.62,4.24-6.13-0.02-8.76c-0.32-0.2-0.67-0.34-1.01-0.51c-6.63-3.4-13.82-4.55-21.11-5.37
		c-15.77-1.77-31.46-1.48-47.01,1.86c-4.2,0.9-8.34,2.16-11.81,4.88c-3,2.35-2.96,4.85,0.04,7.25c2.66,2.12,5.84,3.13,9.02,4.03
		C331.65,422.56,342.53,423.35,354.03,423.28z M414.16,211.04c0.66,6.01,0.31,7.33,5.53,10.21c7.82,4.33,15.16,9.47,22.58,14.47
		c1.85,1.24,2.28,1.13,2.42-1.12c0.45-7.07,1.6-14.02,2.94-20.96c1.05-5.47-1.33-8.66-6.51-8.77c-7.02-0.14-14.05-0.1-21.07,0
		C416.59,204.92,413.77,206.35,414.16,211.04z"/>
	<path class="st0" d="M250.77,297.69c-5.9,0.1-10.91-0.6-15.76-2.58c-10.28-4.2-13.46-14.4-7.09-23.47
		c3.99-5.67,9.28-10.11,14.51-14.57c9.3-7.94,19.16-15.15,29.29-21.99c11.63-7.84,23.52-15.25,35.97-21.76
		c8.3-4.34,16.69-8.47,25.48-11.72c6.11-2.25,12.32-4.16,18.86-4.44c6.2-0.27,12.08,1.52,17.89,3.46
		c10.42,3.48,20.21,8.34,29.88,13.49c12.2,6.5,23.94,13.76,35.31,21.58c13.24,9.11,26.25,18.55,37.72,29.92
		c3.46,3.43,6.69,7.08,7.96,11.89c1.96,7.45-1.94,14.22-9.6,17.56c-6.39,2.78-13.05,2.9-19.8,2.46
		c-18.99-1.24-37.97-2.56-56.97-3.53c-17.44-0.89-34.87-1.72-52.33-1.24c-20,0.55-39.98,1.63-59.94,3.02
		C271.46,296.49,260.75,297.07,250.77,297.69z"/>
	<path class="st1" d="M309.94,417.82c-1.78,2.18-4.18,1.51-6.09,1.63c-9.9,0.65-19.73,0.07-29.25-3.11
		c-10.98-3.67-20.22-9.91-27.31-19.1c-7.55-9.8-10.93-20.95-9.39-33.26c0.65-5.22,2.52-10.22,5.52-14.7
		c6.5-9.69,11.5-20.09,14.96-31.26c1.54-4.98,2.53-10.03,3.03-15.2c0.18-1.89,1.29-2.44,3.1-2.46c12.98-0.18,25.91-1.4,38.87-2.01
		c13.64-0.64,27.28-1.25,40.93-1.76c14.44-0.54,28.83,0.39,43.22,1.03c12.43,0.55,24.86,1.24,37.29,1.88
		c5.58,0.29,11.15,0.64,16.73,0.93c1.7,0.09,2.91,0.57,3.02,2.57c0.4,6.9,2.34,13.46,4.54,19.94c3.37,9.92,8.75,18.83,14.13,27.74
		c4.62,7.65,5.9,15.93,4.71,24.75c-1.52,11.26-6.96,20.51-14.95,28.17c-8.76,8.4-19.53,13.13-31.5,15.08
		c-7.58,1.23-15.18,1.22-22.79,0.45c-0.81-0.08-1.57-0.31-1.75-1.14c-0.17-0.81,0.7-0.85,1.19-1.12c2.71-1.46,5.69-2.55,8.08-4.4
		c4.64-3.6,9.4-7.31,10.21-13.81c0.76-6.1-3.99-9.56-7.84-11.06c-4.98-1.93-10.03-3.7-15.07-5.49c-1.69-0.6-3.43-1.09-5.16-1.6
		c-1.54-0.46-2.08-1.38-1.8-3.02c1.26-7.47,1.61-14.98,1.15-22.55c-0.66-10.97-2.84-21.66-8.21-31.25
		c-6.07-10.84-14.74-18.49-28.3-17.73c-8.13,0.45-14.56,4.24-19.74,10.42c-7.79,9.29-10.94,20.36-12.56,32.07
		c-1.32,9.46-1.31,18.87,0.46,28.26c0.35,1.84-0.02,2.86-1.99,3.55c-6.83,2.38-13.59,4.95-20.36,7.48
		c-8.15,3.05-10.06,11.76-4.22,18.29c4.37,4.88,9.6,8.4,15.57,10.93C308.86,417.17,309.29,417.46,309.94,417.82z M419.42,317.54
		c0,0,0,0.01,0,0.01c-4.69,0-9.38,0.19-14.05-0.05c-5.31-0.27-10.04,3.88-9.85,9.65c0.2,6.34-0.06,12.68-0.07,19.03
		c-0.01,4.98,3.84,9.42,8.5,9.47c10.2,0.12,20.4,0.14,30.6-0.01c5.01-0.07,8.67-4.18,8.67-9.19c0-6.5-0.12-13,0.03-19.49
		c0.11-4.77-3.63-9.64-9.32-9.46C429.09,317.66,424.25,317.54,419.42,317.54z M286.73,355.71c4.83,0,9.67,0.06,14.5-0.02
		c4.94-0.08,8.98-3.84,9.07-8.58c0.12-7.02,0.14-14.05,0.01-21.07c-0.08-4.52-4.18-8.45-8.7-8.47c-9.97-0.05-19.94-0.06-29.92,0.02
		c-5.41,0.04-8.88,3.52-8.97,8.93c-0.11,6.42,0.2,12.85-0.14,19.25c-0.3,5.68,4.2,10.1,10.08,9.96
		C277.36,355.62,282.05,355.71,286.73,355.71z"/>
	<path class="st0" d="M382.17,362.84c-0.05,13.18-2.05,24.34-5.45,35.29c-0.56,1.8-1.34,2.29-3.19,2
		c-13.76-2.15-27.53-2.03-41.29,0.01c-1.77,0.26-2.43-0.18-2.99-1.92c-4.29-13.45-6.3-27.2-5.26-41.29
		c0.84-11.42,3.43-22.4,10.43-31.82c4.69-6.31,10.74-10.37,18.94-10.23c7.73,0.13,13.41,4.09,17.92,9.99
		c6.35,8.29,8.92,17.99,10.26,28.12C382.06,356.84,382.13,360.69,382.17,362.84z M370.16,369.06c0.04,2.39,1.8,4.11,4.15,4.06
		c2.27-0.05,4.07-1.98,3.99-4.28c-0.07-2.31-1.95-4.11-4.22-4.07C371.75,364.83,370.12,366.61,370.16,369.06z"/>
	<path class="st2" d="M309.87,415.62c-6.64-2.94-12.02-6.59-15.49-12.6c-3.05-5.29-2.17-12.03,4.8-14.63
		c6.48-2.42,12.95-4.9,19.46-7.24c1.96-0.7,2.34-1.58,1.98-3.69c-1.45-8.43-1.68-16.94-0.84-25.46c0.77-7.9,2.42-15.62,5.65-22.9
		c3-6.77,6.97-12.93,13.42-16.91c11.26-6.94,25.34-5.09,34.32,5.3c6.83,7.9,10.01,17.31,11.97,27.33
		c1.53,7.83,1.56,15.73,1.26,23.64c-0.13,3.52-0.72,7.03-1.31,10.51c-0.2,1.17-0.01,1.46,1.08,1.86c6.8,2.44,13.59,4.94,20.34,7.52
		c8.2,3.13,7.92,9.84,4.78,15.03c-3.08,5.1-7.88,8.55-13.16,11.28c-0.39,0.2-0.79,0.47-1.26,0.22c0.77-5.94-1.26-8.56-8.4-11.02
		c-3.14-1.08-6.27-2.17-9.54-2.8c-1.38-0.27-1.63-0.81-1.18-2.19c4.37-13.36,6.53-27.08,5.64-41.13
		c-0.7-10.98-3.01-21.64-9.12-31.05c-3.87-5.97-8.63-11.05-15.93-12.81c-9.24-2.23-16.68,0.99-22.9,7.74
		c-6.63,7.19-9.78,16.04-11.51,25.37c-3.12,16.83-1.53,33.4,3.59,49.67c1.26,4.02,1.28,3.88-2.73,4.98
		c-4.63,1.27-9.3,2.47-13.22,5.49C308.21,409.72,307.75,411.46,309.87,415.62z"/>
	<path class="st0" d="M354.03,423.28c-11.5,0.07-22.38-0.72-32.99-3.73c-3.18-0.9-6.36-1.91-9.02-4.03c-3-2.4-3.04-4.89-0.04-7.25
		c3.47-2.73,7.61-3.98,11.81-4.88c15.55-3.33,31.24-3.63,47.01-1.86c7.29,0.82,14.48,1.97,21.11,5.37c0.34,0.17,0.69,0.32,1.01,0.51
		c4.26,2.64,4.27,6.15,0.02,8.76c-5.46,3.36-11.63,4.56-17.8,5.55C367.99,422.86,360.77,423.42,354.03,423.28z"/>
	<path class="st1" d="M414.16,211.04c-0.39-4.69,2.43-6.12,5.89-6.17c7.02-0.11,14.05-0.15,21.07,0c5.18,0.1,7.56,3.3,6.51,8.77
		c-1.34,6.94-2.49,13.9-2.94,20.96c-0.14,2.25-0.58,2.37-2.42,1.12c-7.42-5-14.76-10.14-22.58-14.47
		C414.47,218.36,414.82,217.05,414.16,211.04z"/>
	<g>
		<path class="st1" d="M527.51,460.8c-1.69-1.6-3.66-2.09-5.84-1.27c-2.15,0.82-3.09,2.49-3.09,4.77c0.02,7.63,0.84,15.22,1.1,22.83
			c0.16,4.6,0.43,9.24-1.32,13.63c-1.97,4.93-6.26,5.73-9.86,1.92c-0.78-0.82-1.49-1.7-2.15-2.62c-3.88-5.41-6.9-11.32-10.07-17.15
			c-3.83-7.02-7.61-14.1-13.23-19.89c-6.06-6.25-15.6-5.54-20.79,1.49c-3.41,4.62-4.17,10.11-4.53,15.65
			c-0.58,8.83,0.11,17.66,0.1,26.49c0,3.32,0.11,6.44,3.09,8.61c1.51,0,3.02,0,4.53,0c2.18-1.76,2.89-4,2.8-6.83
			c-0.27-8.37-1.09-16.72-1-25.1c0.03-3.1,0.2-6.18,1.11-9.17c0.61-2.01,1.66-3.76,3.58-4.73c2.43-1.23,4.86-0.4,6.91,2.13
			c4.41,5.43,7.39,11.71,10.63,17.83c4.14,7.8,8.39,15.51,14.68,21.87c1.78,1.8,3.95,2.94,6.2,4c2.12,0,4.23,0,6.35,0
			c1.7-1.46,4.04-1.66,5.78-3.17c4.66-4.06,5.9-9.54,6.5-15.22c1.16-10.86-0.06-21.73-0.09-32.59
			C528.88,462.98,528.51,461.75,527.51,460.8z"/>
		<path class="st1" d="M83.36,475.76c-3.39-5.17-8.12-8.67-13.65-11.1c-12.62-5.56-25.94-6.48-39.45-5.33
			c-5.68,0.48-11.65,0.6-16.08,5.17c0,1.06,0,2.12,0,3.17c1.73,1.56,3.66,2.11,5.99,1.49c10.53-2.79,21.13-3.16,31.84-1.03
			c6.79,1.35,12.99,3.81,18.24,8.46c6.19,5.49,7.29,12.59,2.81,19.45c-2.31,3.53-5.69,5.8-9.54,7.36
			c-10.16,4.15-20.69,4.4-31.39,2.93c-1.42-0.2-1.64-0.8-1.63-2.05c0.05-7.86,0.02-15.71,0.02-23.57c0-2.11-0.57-3.91-2.7-4.79
			c-3.25-1.34-6.37,0.7-6.4,4.31c-0.06,8.69-0.03,17.38,0,26.06c0.01,3.88,1.74,6.23,5.5,7.28c3.5,0.97,7.09,1.45,10.74,1.31
			c0.03,0.13,0.07,0.26,0.12,0.39c3.02,0,6.05,0,9.07,0c1.21,0,2.42,0,3.63,0c2.06-0.45,4.11-0.98,6.19-1.34
			c7.67-1.33,14.95-3.61,21.13-8.57C85.86,498.87,90.63,486.84,83.36,475.76z"/>
		<path class="st1" d="M155.42,479.78c-4.92-6.7-10.04-13.22-17.15-17.82c-6.67-4.31-12.96-3.93-19.25,0.87
			c-6.37,4.86-11.43,10.9-16.04,17.37c-5.88,8.24-10.98,16.94-15.32,26.08c-1.76,3.71-1.19,5.88,2.01,8.17
			c0.28,0.2,0.47,0.55,0.7,0.83c1.06,0,2.12,0,3.17,0c1.41-0.98,2.73-1.99,3.48-3.66c3.59-8,7.93-15.59,12.68-22.94
			c3.98-6.15,8.19-12.13,13.94-16.83c3.7-3.02,6.75-3.2,10.74-0.61c2.44,1.58,4.43,3.66,6.25,5.87
			c7.71,9.36,13.78,19.75,19.19,30.56c1.35,2.7,2.26,5.73,4.93,7.6c1.21,0,2.42,0,3.63,0c0.23-0.29,0.41-0.64,0.68-0.87
			c3.2-2.61,3.76-4.66,2.01-8.22C166.54,496.98,161.5,488.07,155.42,479.78z"/>
		<path class="st1" d="M692.9,505.04c-2.79-5.77-5.91-11.36-9.33-16.77c-5.62-8.87-11.71-17.36-19.85-24.18
			c-7.27-6.1-13.73-6.75-21.28-1.94c-2.17,1.38-4.09,3.1-5.91,4.9c-11.1,11.04-18.98,24.28-25.9,38.15c-2.6,5.2-2,6.99,2.68,10.07
			c0.76,0,1.51,0,2.27,0c2.1-0.9,3.31-2.5,4.31-4.57c5.8-11.96,12.24-23.54,20.93-33.71c2.16-2.53,4.48-4.9,7.41-6.56
			c2.43-1.37,4.9-1.48,7.29,0.06c4.62,2.98,8.15,7.04,11.37,11.43c5.27,7.19,9.69,14.89,13.9,22.72c1.96,3.65,3.01,7.87,6.44,10.63
			c1.06,0,2.12,0,3.18,0c1.53-1.36,3.65-2.19,4.08-4.53c0-1.21,0-2.42,0-3.63C693.48,506.79,693.28,505.81,692.9,505.04z"/>
		<path class="st1" d="M607,477.84c-3.71-7.16-9.93-11.48-17.23-14.18c-14.74-5.45-29.91-5.93-45.25-3.16
			c-2.06,0.37-4.18,0.82-5.89,2.19c-1.42,1.13-2.54,2.6-1.84,4.5c0.74,2.01,2.65,2.59,4.5,2.17c4.48-1.01,9.01-1.71,13.52-2.54
			c3.76-0.01,7.53-0.01,11.29-0.02c1.85,0.3,3.71,0.63,5.57,0.9c7.52,1.09,14.49,3.41,20.43,8.39c5.42,4.55,7.33,9.82,5.28,16.01
			c-1.98,6-6.58,9.45-12.19,11.63c-9.82,3.82-20,4.06-30.32,2.69c-1.71-0.23-1.97-1.01-1.96-2.51c0.06-7.7,0.03-15.41,0.02-23.11
			c0-2.17-0.54-4.07-2.83-4.9c-3.36-1.22-6.22,0.79-6.24,4.51c-0.05,8.61-0.04,17.22-0.01,25.83c0.01,4.13,1.79,6.56,5.79,7.49
			c3.45,0.8,6.97,1.36,10.54,1.15c0.03,0.13,0.05,0.27,0.06,0.4c3.02,0,6.05,0,9.07,0c0.01-0.14,0.05-0.27,0.12-0.39
			c2.13,0.19,4.22-0.24,6.31-0.5c8.79-1.07,17.18-3.32,24.31-8.92C607.61,499.54,612.51,488.49,607,477.84z"/>
		<path class="st1" d="M349.24,459.39c-2.93-1.25-5.35-0.11-6.91,3.11c-5.79,11.94-12.33,23.43-20.65,33.84
			c-1.21,1.23-2.37,2.52-3.64,3.69c-5.95,5.48-9.35,6.49-16.02,0.28c-3.33-3.1-6.03-6.73-8.66-10.4c-3.95-5.5-7.2-11.44-10.7-17.23
			l0-0.01c-1.06-2.35-2.18-4.67-3.58-6.84c-0.6-1.36-1.11-2.76-1.82-4.06c-2.14-3.9-6.71-3.88-9.12-0.01c0,0,0,0,0,0
			c-1.42,1.7-1.03,3.5-0.21,5.26c5.68,12.21,12.61,23.66,21.21,34.04c5.15,6.22,10.77,11.93,18.92,14.22c1.36,0,2.72,0,4.08,0
			c9.22-3.02,15.28-9.89,20.98-17.2c1.69-2.3,3.43-4.55,5.05-6.9c5.29-7.7,9.97-15.77,13.86-24.27
			C353.47,463.76,352.22,460.66,349.24,459.39z"/>
		<path class="st1" d="M255.41,458.96c-3.19,0.01-5.01,1.98-5.01,5.64c-0.01,15.02,0.01,30.03,0.05,45.05
			c0.01,3.11,2.23,5.23,5.29,5.21c2.94-0.02,4.78-1.92,4.79-5.1c0.03-7.55,0.01-15.09,0.01-22.64c0.01,0,0.03,0,0.05,0
			c0-7.54,0.06-15.09-0.03-22.63C260.51,460.82,258.64,458.95,255.41,458.96z"/>
		<path class="st1" d="M369.35,464.82c-0.01-3.27-1.45-5.34-3.94-5.81c-3.69-0.69-6.43,1.58-6.44,5.58
			c-0.04,14.96-0.01,29.91,0.04,44.87c0.01,3.34,2.23,5.47,5.35,5.44c3.18-0.04,5-2.08,5.01-5.65c0.01-7.33,0-14.65,0-21.98
			c0,0-0.01,0-0.01,0C369.35,479.78,369.37,472.3,369.35,464.82z"/>
		<path class="st1" d="M446.44,504.75c-1.29-0.32-2.56-0.16-3.81,0.16c-11.57,3.01-23.14,2.81-34.67-0.13
			c-6.95-1.77-13.07-5-17.53-10.84c-0.43-0.56-1.19-1.2-0.81-1.92c0.33-0.63,1.25-0.28,1.9-0.28c8.53-0.01,17.06,0.01,25.6,0
			c2.77,0,4.18-1.4,4.27-4.15c0.09-2.56-1.42-4.22-4.07-4.39c-1.2-0.08-2.42-0.04-3.62-0.04c-7.55,0-15.1-0.04-22.65,0.02
			c-1.88,0.01-2.43-0.48-1.66-2.35c0.97-2.35,2.57-4.23,4.11-6.18c0,0,0.03-0.01,0.03-0.01c3.42-2.79,7.21-4.83,11.49-6.03
			c9.49-2.64,19.09-2.4,28.73-1.22c1.46,0.18,2.86,0.19,4.22-0.37c2.57-1.06,3.03-4.05,0.91-5.84c-0.88-0.75-1.92-1.15-3.08-1.3
			c-11.23-1.46-22.42-1.47-33.52,1.07c-5.24,1.2-10.29,2.88-14.64,6.19c0,0-0.15,0.1-0.15,0.1c-4.92,3.08-8.2,7.38-9.71,13
			c0,0,0.01,0.01,0.01,0.01c-1.29,3.29-1.75,6.65-0.77,10.12c1.31,6.28,4.77,11.12,9.83,14.95c8.25,6.26,18.05,8.21,27.91,9.38
			c6.7,0.8,13.58,0.65,20.35-0.3c3.86-0.54,7.79-0.83,11.36-2.65c0.46-0.24,0.95-0.43,1.37-0.73c1.26-0.9,1.93-2.12,1.67-3.68
			C449.2,505.68,447.91,505.11,446.44,504.75z"/>
		<path class="st1" d="M240.37,459.29c-2.69-1.13-5.21-0.05-6.7,2.89c-0.41,0.81-0.72,1.66-1.13,2.46
			c-5.83,11.77-12.44,23.05-20.88,33.18c-0.38,0.36-0.78,0.7-1.14,1.08c-6.95,7.43-11.75,7.38-18.67-0.04
			c-4.71-5.05-8.52-10.73-12.16-16.54c-4.09-6.52-7.61-13.34-10.97-20.25c-1.42-2.91-4.1-3.89-6.76-2.72
			c-2.78,1.23-4,3.94-3.05,6.92c0.3,0.93,0.74,1.81,1.17,2.69c3.45,7.13,7.3,14.05,11.82,20.56c7.21,10.38,14.33,20.9,26.86,25.75
			c1.36,0,2.72,0,4.08,0c5.9-1.55,10.66-4.86,14.64-9.39c0.55-0.51,1.13-0.98,1.64-1.53c8.25-8.91,14.66-19.08,20.41-29.71
			c1.47-2.71,2.89-5.47,4.02-8.34C244.74,463.35,243.3,460.52,240.37,459.29z"/>
	</g>
	<path d="M419.42,317.54c4.84,0,9.68,0.12,14.51-0.03c5.69-0.18,9.43,4.69,9.32,9.46c-0.15,6.49-0.04,12.99-0.03,19.49
		c0,5.01-3.66,9.12-8.67,9.19c-10.2,0.14-20.4,0.12-30.6,0.01c-4.66-0.05-8.51-4.49-8.5-9.47c0.01-6.34,0.27-12.69,0.07-19.03
		c-0.19-5.76,4.54-9.92,9.85-9.65c4.67,0.24,9.37,0.05,14.05,0.05C419.42,317.55,419.42,317.55,419.42,317.54z M419.18,354.27
		c0,0.01,0,0.02,0,0.03c4.98,0,9.97,0.03,14.95-0.01c4.23-0.03,7.59-3.36,7.63-7.59c0.06-6.64-0.05-13.29,0.09-19.93
		c0.09-4.32-3.2-7.89-7.8-7.92c-10.04-0.06-20.09-0.02-30.13,0.09c-3.57,0.04-6.86,3.45-6.89,7.02c-0.07,7.02-0.06,14.04,0,21.06
		c0.03,3.87,3.51,7.22,7.43,7.25C409.36,354.3,414.27,354.27,419.18,354.27z"/>
	<path d="M286.73,355.71c-4.68,0-9.37-0.09-14.05,0.02c-5.88,0.14-10.38-4.28-10.08-9.96c0.34-6.4,0.03-12.83,0.14-19.25
		c0.09-5.41,3.56-8.89,8.97-8.93c9.97-0.08,19.94-0.07,29.92-0.02c4.52,0.02,8.62,3.95,8.7,8.47c0.12,7.02,0.11,14.05-0.01,21.07
		c-0.08,4.74-4.12,8.5-9.07,8.58C296.4,355.77,291.57,355.71,286.73,355.71z M286.64,354.27c0-0.02,0-0.04,0-0.07
		c4.98,0,9.96,0.1,14.94-0.03c4.36-0.12,7.31-3.2,7.34-7.5c0.04-6.56-0.2-13.14,0.06-19.69c0.16-4.16-2.76-8.2-7.95-8.26
		c-9.96-0.12-19.92-0.01-29.87,0.23c-4.26,0.1-7.02,3.22-7.08,7.55c-0.09,6.56-0.12,13.13-0.05,19.69c0.05,4.87,3.26,8.01,8.12,8.07
		C276.97,354.32,281.8,354.27,286.64,354.27z"/>
	<path d="M370.16,369.06c-0.04-2.45,1.59-4.24,3.92-4.28c2.27-0.05,4.15,1.76,4.22,4.07c0.07,2.3-1.72,4.23-3.99,4.28
		C371.96,373.18,370.2,371.45,370.16,369.06z"/>
	<path class="st2" d="M419.18,354.27c-4.91,0-9.82,0.03-14.73-0.01c-3.92-0.03-7.4-3.37-7.43-7.25c-0.06-7.02-0.07-14.04,0-21.06
		c0.03-3.57,3.33-6.98,6.89-7.02c10.04-0.11,20.09-0.15,30.13-0.09c4.61,0.03,7.89,3.6,7.8,7.92c-0.13,6.64-0.03,13.28-0.09,19.93
		c-0.04,4.23-3.39,7.56-7.63,7.59c-4.98,0.04-9.97,0.01-14.95,0.01C419.18,354.29,419.18,354.28,419.18,354.27z M416.86,323.19
		c-3.14-0.44-6.3-0.32-9.45-0.17c-2.81,0.14-5.59,2.39-5.73,5.13c-0.21,4.03-0.49,8.09,0.23,12.12c-0.44,1.69-0.21,3.42,0.09,5.06
		c0.49,2.69,2.73,4.47,5.41,4.6c8.22,0.4,16.44,0.02,24.66-0.06c1.95-0.02,3.5-0.84,4.49-2.54c1.31-2.24,1.5-4.63,0.85-7.12
		c0.53-0.79,0.6-1.65,0.56-2.58c-0.11-2.78-0.35-5.57-0.17-8.33c0.23-3.48-2.73-6.05-5.02-6.31c-3.32-0.37-6.72-0.53-10.05,0.25
		C420.77,322.68,418.81,322.92,416.86,323.19z"/>
	<path class="st2" d="M286.64,354.27c-4.83,0-9.66,0.04-14.49-0.01c-4.86-0.06-8.07-3.2-8.12-8.07c-0.07-6.56-0.04-13.13,0.05-19.69
		c0.06-4.33,2.82-7.45,7.08-7.55c9.95-0.24,19.92-0.35,29.87-0.23c5.19,0.06,8.11,4.1,7.95,8.26c-0.25,6.55-0.02,13.13-0.06,19.69
		c-0.03,4.3-2.97,7.39-7.34,7.5c-4.98,0.13-9.96,0.03-14.94,0.03C286.64,354.23,286.64,354.25,286.64,354.27z M289.86,323.33
		c-1.96-0.52-3.93-0.6-5.91-0.07c-3.3-0.57-6.63-0.53-9.92-0.15c-3.16,0.36-5.14,2.88-5.23,6.14c-0.08,2.87-0.06,5.74-0.13,8.61
		c-0.02,0.86,0.11,1.65,0.58,2.37c-0.76,1.28-0.19,2.64-0.2,3.95c-0.01,3.47,2.12,5.65,5.62,5.69c7.83,0.1,15.67-0.06,23.5,0.18
		c5.4,0.16,7.81-5.83,6.27-9.84c0.78-4.17,0.64-8.36,0.18-12.53c-0.26-2.4-2.06-4.08-4.28-4.45
		C296.9,322.66,293.35,322.62,289.86,323.33z"/>
	<path d="M437.4,340.21c0.64,2.48,0.46,4.88-0.85,7.12c-1,1.71-2.54,2.53-4.49,2.54c-8.22,0.08-16.44,0.46-24.66,0.06
		c-2.69-0.13-4.92-1.91-5.41-4.6c-0.3-1.63-0.53-3.37-0.09-5.06c3.61-0.35,6.69-1.81,9.09-4.53c3.17-3.6,4.86-7.92,5.87-12.55
		c1.96-0.27,3.92-0.51,5.87,0.04c0.39,2,1.05,3.92,1.89,5.77C427.2,334.63,430.79,339.15,437.4,340.21z"/>
	<path class="st0" d="M437.4,340.21c-6.62-1.05-10.21-5.57-12.79-11.21c-0.84-1.84-1.5-3.77-1.89-5.77
		c3.33-0.78,6.73-0.62,10.05-0.24c2.29,0.26,5.26,2.83,5.02,6.31c-0.19,2.76,0.06,5.55,0.17,8.33
		C438,338.55,437.93,339.42,437.4,340.21z"/>
	<path class="st0" d="M416.86,323.19c-1,4.63-2.7,8.95-5.87,12.55c-2.39,2.72-5.48,4.18-9.09,4.53c-0.72-4.03-0.44-8.09-0.23-12.12
		c0.14-2.74,2.92-5,5.73-5.13C410.55,322.87,413.71,322.75,416.86,323.19z"/>
	<path d="M283.95,323.26c1.98-0.53,3.94-0.45,5.91,0.07c0.35,1.23,0.62,2.49,1.08,3.68c2.51,6.43,6.05,11.82,13.51,13.21
		c1.54,4.01-0.86,10-6.27,9.84c-7.83-0.24-15.67-0.08-23.5-0.18c-3.49-0.04-5.63-2.23-5.62-5.69c0-1.31-0.56-2.68,0.2-3.95
		c3.78-0.38,6.83-2.09,9.26-5C281.44,331.74,283.01,327.64,283.95,323.26z"/>
	<path class="st0" d="M283.95,323.26c-0.95,4.38-2.51,8.48-5.43,11.97c-2.43,2.9-5.48,4.62-9.26,5c-0.47-0.72-0.6-1.51-0.58-2.37
		c0.07-2.87,0.05-5.74,0.13-8.61c0.09-3.26,2.07-5.78,5.23-6.14C277.32,322.73,280.65,322.69,283.95,323.26z"/>
	<path class="st0" d="M304.44,340.22c-7.45-1.39-11-6.78-13.51-13.21c-0.46-1.19-0.72-2.45-1.08-3.68
		c3.49-0.71,7.04-0.67,10.49-0.09c2.22,0.37,4.01,2.06,4.28,4.45C305.08,331.85,305.23,336.05,304.44,340.22z"/>
</g>
</svg>
